<svg xmlns="http://www.w3.org/2000/svg" viewBox="0 0 248.95 235.43"><defs><style>.cls-1{opacity:0.5;}.cls-2{fill:#ddebff;opacity:0.4;}.cls-3{fill:#c2b9f3;}.cls-4{fill:#96d6ff;}.cls-5,.cls-6{fill:#fff;}.cls-6{stroke:#444;opacity:0.6;}.cls-6,.cls-8{stroke-miterlimit:10;stroke-width:2px;}.cls-7{fill:#ebf4ff;}.cls-8{fill:none;stroke:#6262a0;}.cls-9{fill:#a8ef9e;}.cls-10{fill:#88c68f;}.cls-11{fill:#daf4d4;opacity:0.7;}</style></defs><title>Asset 140</title><g id="Layer_2" data-name="Layer 2"><g id="Layer_1-2" data-name="Layer 1"><g class="cls-1"><path class="cls-2" d="M248.42,85.62q-.24,1.56-.6,3.16c-2,9.07-6.83,17.25-9.06,26.26-5.38,21.83,12.26,41.28,6.26,62.57-1.81,6.4-5.84,11.9-10.33,16.71-11.53,12.39-26.23,21.08-40.7,29.6-6.71,3.95-14.07,8-21.71,6.9-7.22-1.07-13.05-6.6-20-8.91-13.86-4.61-28.09,4.17-41.83,9.16C99.63,235,87.85,236.6,76.54,234.5S54.45,226.39,47.43,217c-4.84-6.46-8-14.54-14.55-19.18-6-4.26-13.77-4.84-20.16-8.42A25.69,25.69,0,0,1,0,167.31C.08,152.26,12.81,140.83,18.53,127c4.65-11.25,4.56-23.93,3.72-36.12-.95-13.79-2.64-28,.85-41.58,5.32-20.66,20-25.14,38.43-27.9,16.5-2.46,33.73-7.26,50.21-2,7.71,2.45,14.15,8,22.07,9.87,14.49,3.5,28.24-5.43,42.55-5.9,12-.39,24.79,2.71,35.79,7.59C233.36,40.31,252.38,60.08,248.42,85.62Z"/><polygon class="cls-3" points="28.32 168.73 25.27 167.86 22.11 168.25 22 165.08 20.65 162.2 23.63 161.11 25.95 158.93 27.91 161.44 30.7 162.97 28.92 165.61 28.32 168.73"/><polygon class="cls-4" points="67.82 40.99 64.76 40.12 61.61 40.51 61.49 37.34 60.14 34.46 63.13 33.37 65.45 31.2 67.4 33.7 70.19 35.23 68.41 37.87 67.82 40.99"/><polygon class="cls-4" points="228.05 192.99 225 192.12 221.84 192.51 221.73 189.34 220.38 186.46 223.36 185.37 225.68 183.19 227.64 185.7 230.43 187.23 228.65 189.87 228.05 192.99"/><polygon class="cls-4" points="77.87 226.38 74.81 225.51 71.66 225.91 71.54 222.73 70.19 219.85 73.18 218.76 75.5 216.59 77.45 219.09 80.24 220.63 78.46 223.26 77.87 226.38"/><polygon class="cls-3" points="216.96 64.15 212.56 62.89 208.01 63.46 207.85 58.88 205.9 54.74 210.2 53.17 213.54 50.04 216.36 53.65 220.38 55.85 217.82 59.65 216.96 64.15"/><path class="cls-5" d="M30.19,133.31H56a1.25,1.25,0,0,0,0-2.5H30.19a1.25,1.25,0,0,0,0,2.5Z"/><path class="cls-5" d="M32.62,138.63H45.5a1.25,1.25,0,0,0,0-2.5H32.62a1.25,1.25,0,0,0,0,2.5Z"/><path class="cls-5" d="M62.48,133.31h8.8a1.25,1.25,0,0,0,0-2.5h-8.8a1.25,1.25,0,0,0,0,2.5Z"/><path class="cls-5" d="M15.82,144h6.47a1.25,1.25,0,0,0,0-2.5H15.82a1.25,1.25,0,0,0,0,2.5Z"/><path class="cls-5" d="M27.62,144H53.39a1.25,1.25,0,0,0,0-2.5H27.62a1.25,1.25,0,0,0,0,2.5Z"/><path class="cls-5" d="M146.32,199.1H120.54a1.25,1.25,0,0,0,0,2.5h25.78a1.25,1.25,0,0,0,0-2.5Z"/><path class="cls-5" d="M143.89,204.42H131a1.25,1.25,0,0,0,0,2.5h12.89a1.25,1.25,0,0,0,0-2.5Z"/><path class="cls-5" d="M114,199.1h-8.8a1.25,1.25,0,0,0,0,2.5H114a1.25,1.25,0,0,0,0-2.5Z"/><path class="cls-5" d="M160.69,209.75h-6.47a1.25,1.25,0,0,0,0,2.5h6.47a1.25,1.25,0,0,0,0-2.5Z"/><path class="cls-5" d="M148.89,209.75H123.11a1.25,1.25,0,0,0,0,2.5h25.78a1.25,1.25,0,0,0,0-2.5Z"/><path class="cls-5" d="M201.78,34.84H176a1.25,1.25,0,0,0,0,2.5h25.78a1.25,1.25,0,0,0,0-2.5Z"/><path class="cls-5" d="M199.36,40.17H186.47a1.25,1.25,0,0,0,0,2.5h12.89a1.25,1.25,0,0,0,0-2.5Z"/><path class="cls-5" d="M169.49,34.84h-8.8a1.25,1.25,0,0,0,0,2.5h8.8a1.25,1.25,0,0,0,0-2.5Z"/><path class="cls-5" d="M216.15,45.49h-6.47a1.25,1.25,0,0,0,0,2.5h6.47a1.25,1.25,0,0,0,0-2.5Z"/><path class="cls-5" d="M204.36,45.49H178.58a1.25,1.25,0,0,0,0,2.5h25.78a1.25,1.25,0,0,0,0-2.5Z"/><path class="cls-6" d="M20.65,83.86A13.37,13.37,0,0,0,34,97.24H65.66a13.38,13.38,0,0,0,4.85-25.85v-.3A14,14,0,0,0,44.84,63.4,8.42,8.42,0,0,0,40.11,62a8.51,8.51,0,0,0-8.52,8.52v.22A13.39,13.39,0,0,0,20.65,83.86Z"/><path class="cls-6" d="M234.21,133.86v-.22a8.42,8.42,0,0,0-8.43-8.43,8.34,8.34,0,0,0-4.68,1.42,13.85,13.85,0,0,0-25.42,7.61v.3a13.24,13.24,0,0,0,4.8,25.59h31.31a13.25,13.25,0,0,0,2.41-26.27Z"/></g><polygon class="cls-5" points="202.25 132.1 115.63 132.1 64.6 132.1 33.73 218.07 151.22 218.07 233.13 218.07 202.25 132.1"/><polygon class="cls-7" points="151.22 212.43 35.75 212.43 33.73 218.07 151.22 218.07 233.13 218.07 231.1 212.43 151.22 212.43"/><path class="cls-7" d="M171.26,132.1c-18.73,30.06-37.83,55.66-37.83,55.66s-19.1-25.6-37.83-55.66Z"/><polygon class="cls-8" points="202.25 132.1 115.63 132.1 64.6 132.1 33.73 218.07 151.22 218.07 233.13 218.07 202.25 132.1"/><path class="cls-9" d="M133.43,1a60,60,0,0,0-60,60c0,33.14,60,120.32,60,120.32s60-87.18,60-120.32A60,60,0,0,0,133.43,1Zm0,79.81a26.28,26.28,0,1,1,26.28-26.28A26.28,26.28,0,0,1,133.43,80.81Z"/><path class="cls-10" d="M132.1,1c-1.53,0-3,.08-4.54.19A60,60,0,0,1,183,61c0,27.56-41.48,92.47-55.47,113.56,2.83,4.28,4.54,6.76,4.54,6.76s60-87.18,60-120.32A60,60,0,0,0,132.1,1Z"/><path class="cls-8" d="M133.43,1a60,60,0,0,0-60,60c0,33.14,60,120.32,60,120.32s60-87.18,60-120.32A60,60,0,0,0,133.43,1Zm0,79.81a26.28,26.28,0,1,1,26.28-26.28A26.28,26.28,0,0,1,133.43,80.81Z"/><path class="cls-11" d="M105.61,9.42V134.7c-4.17-7.17-8.33-14.67-12.18-22.11v-94A60.54,60.54,0,0,1,105.61,9.42Z"/></g></g></svg>