<svg xmlns="http://www.w3.org/2000/svg" viewBox="0 0 248.95 218.44"><defs><style>.cls-1{opacity:0.5;}.cls-2{fill:#ddebff;opacity:0.4;}.cls-3{fill:#c2b9f3;}.cls-4{fill:#96d6ff;}.cls-5,.cls-6{fill:#fff;}.cls-6{stroke:#444;}.cls-10,.cls-6{stroke-miterlimit:10;stroke-width:2px;}.cls-6,.cls-8{opacity:0.6;}.cls-7{fill:#c6d1ea;}.cls-8{fill:#ebf4ff;}.cls-9{fill:#a5b5d0;}.cls-10{fill:none;stroke:#6262a0;}.cls-11{fill:#ff8c8c;}</style></defs><title>Asset 60</title><g id="Layer_2" data-name="Layer 2"><g id="Layer_1-2" data-name="Layer 1"><g class="cls-1"><path class="cls-2" d="M248.42,68.63q-.24,1.56-.6,3.16c-2,9.07-6.83,17.25-9.06,26.26-5.38,21.83,12.26,41.28,6.26,62.57-1.81,6.4-5.84,11.9-10.33,16.71-11.53,12.39-26.23,21.08-40.7,29.6-6.71,3.95-14.07,8-21.71,6.9-7.22-1.07-13.05-6.6-20-8.91-13.86-4.61-28.09,4.17-41.83,9.16-10.84,3.93-22.62,5.54-33.92,3.44S54.45,209.4,47.43,200c-4.84-6.46-8-14.54-14.55-19.18-6-4.26-13.77-4.84-20.16-8.42A25.69,25.69,0,0,1,0,150.33C.08,135.27,12.81,123.84,18.53,110c4.65-11.25,4.56-23.93,3.72-36.12-.95-13.79-2.64-28,.85-41.58,5.32-20.66,20-25.14,38.43-27.9,16.5-2.46,33.73-7.26,50.21-2,7.71,2.45,14.15,8,22.07,9.87,14.49,3.5,28.24-5.43,42.55-5.9,12-.39,24.79,2.71,35.79,7.59C233.36,23.32,252.38,43.09,248.42,68.63Z"/><polygon class="cls-3" points="28.32 151.74 25.27 150.87 22.11 151.26 22 148.09 20.65 145.21 23.63 144.12 25.95 141.94 27.91 144.45 30.7 145.98 28.92 148.62 28.32 151.74"/><polygon class="cls-4" points="67.82 24 64.76 23.13 61.61 23.52 61.49 20.35 60.14 17.47 63.13 16.38 65.45 14.21 67.4 16.71 70.19 18.24 68.41 20.88 67.82 24"/><polygon class="cls-4" points="228.05 176 225 175.13 221.84 175.52 221.73 172.35 220.38 169.47 223.36 168.38 225.68 166.21 227.64 168.71 230.43 170.24 228.65 172.88 228.05 176"/><polygon class="cls-4" points="77.87 209.4 74.81 208.52 71.66 208.92 71.54 205.74 70.19 202.86 73.18 201.78 75.5 199.6 77.45 202.1 80.24 203.64 78.46 206.27 77.87 209.4"/><polygon class="cls-3" points="216.96 47.16 212.56 45.9 208.01 46.47 207.85 41.9 205.9 37.75 210.2 36.18 213.54 33.05 216.36 36.66 220.38 38.86 217.82 42.66 216.96 47.16"/><path class="cls-5" d="M30.19,116.32H56a1.25,1.25,0,0,0,0-2.5H30.19a1.25,1.25,0,0,0,0,2.5Z"/><path class="cls-5" d="M32.62,121.64H45.5a1.25,1.25,0,0,0,0-2.5H32.62a1.25,1.25,0,0,0,0,2.5Z"/><path class="cls-5" d="M62.48,116.32h8.8a1.25,1.25,0,0,0,0-2.5h-8.8a1.25,1.25,0,0,0,0,2.5Z"/><path class="cls-5" d="M15.82,127h6.47a1.25,1.25,0,0,0,0-2.5H15.82a1.25,1.25,0,0,0,0,2.5Z"/><path class="cls-5" d="M27.62,127H53.39a1.25,1.25,0,0,0,0-2.5H27.62a1.25,1.25,0,0,0,0,2.5Z"/><path class="cls-5" d="M146.32,182.11H120.54a1.25,1.25,0,0,0,0,2.5h25.78a1.25,1.25,0,0,0,0-2.5Z"/><path class="cls-5" d="M143.89,187.43H131a1.25,1.25,0,0,0,0,2.5h12.89a1.25,1.25,0,0,0,0-2.5Z"/><path class="cls-5" d="M114,182.11h-8.8a1.25,1.25,0,0,0,0,2.5H114a1.25,1.25,0,0,0,0-2.5Z"/><path class="cls-5" d="M160.69,192.76h-6.47a1.25,1.25,0,0,0,0,2.5h6.47a1.25,1.25,0,0,0,0-2.5Z"/><path class="cls-5" d="M148.89,192.76H123.11a1.25,1.25,0,0,0,0,2.5h25.78a1.25,1.25,0,0,0,0-2.5Z"/><path class="cls-5" d="M201.78,17.85H176a1.25,1.25,0,0,0,0,2.5h25.78a1.25,1.25,0,0,0,0-2.5Z"/><path class="cls-5" d="M199.36,23.18H186.47a1.25,1.25,0,0,0,0,2.5h12.89a1.25,1.25,0,0,0,0-2.5Z"/><path class="cls-5" d="M169.49,17.85h-8.8a1.25,1.25,0,0,0,0,2.5h8.8a1.25,1.25,0,0,0,0-2.5Z"/><path class="cls-5" d="M216.15,28.5h-6.47a1.25,1.25,0,0,0,0,2.5h6.47a1.25,1.25,0,0,0,0-2.5Z"/><path class="cls-5" d="M204.36,28.5H178.58a1.25,1.25,0,0,0,0,2.5h25.78a1.25,1.25,0,0,0,0-2.5Z"/><path class="cls-6" d="M20.65,66.87A13.37,13.37,0,0,0,34,80.25H65.66A13.38,13.38,0,0,0,70.51,54.4v-.3a14,14,0,0,0-25.68-7.69A8.42,8.42,0,0,0,40.11,45a8.51,8.51,0,0,0-8.52,8.52v.22A13.39,13.39,0,0,0,20.65,66.87Z"/><path class="cls-6" d="M234.21,116.87v-.22a8.42,8.42,0,0,0-8.43-8.43,8.34,8.34,0,0,0-4.68,1.42,13.85,13.85,0,0,0-25.42,7.61v.3a13.24,13.24,0,0,0,4.8,25.59h31.31a13.25,13.25,0,0,0,2.41-26.27Z"/></g><path class="cls-7" d="M96.07,82.72a116.12,116.12,0,0,1-18.43-35.6c-1.7-5.43-2.87-11.82.44-16.45,3-4.24,10.46-12.34,15.61-11.57s9.05,8.11,14,9.83,10.43,2.76,15.26.79a35.35,35.35,0,0,0,9-5.09c6.89-5.14,17.42-3.58,25.5-.64s13.12,7.59,12.79,16.17c-.24,6.16-3.5,11.74-6.67,17L149.37,80.94"/><path class="cls-8" d="M79.77,40.66c3-4.24,8.92-5.49,14.07-4.71s9.89,3.17,14.8,4.89,10.43,2.76,15.26.79c3.72-1.51,6.53-4.6,9.75-7,6.89-5.14,16.31-7.1,24.39-4.16a21.73,21.73,0,0,1,13.08,13.68,21.08,21.08,0,0,0,.82-4.91c.33-8.59-6.41-12.31-14.48-15.25s-16.92-5.43-23.81-.29c-3.22,2.4-6,5.49-9.75,7-4.82,2-10.34.93-15.26-.79s-9.81-10-15-10.82S82.8,25.51,79.77,29.74a19.06,19.06,0,0,0-3,14.41C77.13,43.28,79.21,41.45,79.77,40.66Z"/><path class="cls-7" d="M123.81,67.8c-32.1,0-58.13,50.37-58.13,82.47,0,.15,0,.3,0,.46.17,21.7,18.49,38.9,40.19,38.9h35.88c21.7,0,40-17.2,40.19-38.9,0-.15,0-.3,0-.46C181.94,118.17,155.92,67.8,123.81,67.8Z"/><path class="cls-9" d="M142.75,179.7H106.86c-21.7,0-40-17.2-40.19-38.9,0-.15,0-.3,0-.46,0-.63,0-1.28,0-1.92a74.08,74.08,0,0,0-1,11.85c0,.15,0,.3,0,.46.17,21.7,18.49,38.9,40.19,38.9h35.88c21.7,0,40-17.2,40.19-38.9,0-.15,0-.3,0-.46,0-.36,0-.73,0-1.09C177.81,166.77,161.56,179.7,142.75,179.7Z"/><path class="cls-8" d="M124.78,78.09c27.22,0,50,35.15,55.5,63.9-.16-29.77-25.52-76.17-56.8-76.17s-56.8,46.69-56.8,76.45c0,.14,0,.28,0,.42A33.49,33.49,0,0,0,68,151.74C69.55,121.95,94.37,78.09,124.78,78.09Z"/><path class="cls-10" d="M95.58,79.22C87.43,68.54,80.68,60,76.67,47.16c-1.7-5.43-1.2-13.77,2.11-18.41,3-4.24,9.76-10.42,14.91-9.65s9.05,8.11,14,9.83,10.43,2.76,15.26.79c3.72-1.51,6.53-4.6,9.75-7,6.89-5.14,16.72-1.66,24.8,1.28s13.83,5.67,13.49,14.26c-.24,6.16-3.5,11.74-6.67,17L150.07,79"/><path class="cls-10" d="M123.81,66.48c-32.1,0-58.13,50.37-58.13,82.47,0,.15,0,.3,0,.46.17,21.7,18.49,38.9,40.19,38.9h35.88c21.7,0,40-17.2,40.19-38.9,0-.15,0-.3,0-.46C181.94,116.85,155.92,66.48,123.81,66.48Z"/><path class="cls-11" d="M127.18,163.83V176h-8.28V164.17A46.8,46.8,0,0,1,97.44,159V143.49a33.27,33.27,0,0,0,9.82,4.87,45.64,45.64,0,0,0,11.63,2.58V130.55q-13.28-4.87-18.13-10.56a20.63,20.63,0,0,1-4.85-13.87,20.24,20.24,0,0,1,6.3-15q6.3-6.19,16.68-7.2V73.52h8.28v10.2q12,.56,17.87,3.81v15.13a43.29,43.29,0,0,0-17.87-5.83v21.23q12.43,4.43,17.82,10.11a19.27,19.27,0,0,1,5.39,13.75q0,9.3-6,15T127.18,163.83Zm-8.28-49V97.05q-7.89,1.4-7.89,8.12Q111,110.95,118.89,114.81Zm8.28,18.94v17q8.11-1.23,8.11-8Q135.29,137.22,127.18,133.75Z"/><path class="cls-10" d="M127.12,163.83V176h-8.18V164.17A45.72,45.72,0,0,1,97.77,159V143.49a32.68,32.68,0,0,0,9.69,4.87,44.56,44.56,0,0,0,11.48,2.58V130.55Q105.84,125.68,101,120a20.8,20.8,0,0,1-4.79-13.87,20.36,20.36,0,0,1,6.22-15q6.22-6.19,16.47-7.2V73.52h8.18v10.2q11.82.56,17.65,3.81v15.13a42.36,42.36,0,0,0-17.65-5.83v21.23q12.27,4.43,17.59,10.11A19.4,19.4,0,0,1,150,141.93q0,9.3-5.94,15T127.12,163.83Zm-8.18-49V97.05q-7.79,1.4-7.79,8.12Q111.16,110.95,118.94,114.81Zm8.18,18.94v17q8-1.23,8-8Q135.14,137.22,127.12,133.75Z"/></g></g></svg>